<?xml version="1.0" encoding="utf-8"?>
<!-- Generator: Adobe Illustrator 21.0.0, SVG Export Plug-In . SVG Version: 6.00 Build 0)  -->
<svg version="1.1" id="Layer_1" xmlns="http://www.w3.org/2000/svg" xmlns:xlink="http://www.w3.org/1999/xlink" x="0px" y="0px"
	 viewBox="0 0 1366 768" style="enable-background:new 0 0 1366 768;" xml:space="preserve">
<style type="text/css">
	.st0{display:none;}
	.st1{display:inline;}
	.st2{fill:url(#SVGID_1_);}
	.st3{fill:url(#SVGID_2_);}
	.st4{fill:url(#SVGID_3_);}
	.st5{fill:url(#SVGID_4_);}
	.st6{fill:url(#SVGID_5_);}
	.st7{fill:url(#SVGID_6_);}
	.st8{fill:url(#SVGID_7_);}
	.st9{fill:url(#SVGID_8_);}
	.st10{fill:url(#SVGID_9_);}
	.st11{fill:#F4D4DD;}
	.st12{font-family:'MyriadPro-Regular';}
	.st13{font-size:12px;}
</style>
<g class="st0">
	<path class="st1" d="M696,297.2c-3.7,0-6.6,0.8-9.4,1.6c-4.4,1.3-8.9,1.4-13.4,1.7c-4.2,0.3-5.5-1.9-7.9-4.1
		c-8.4-7.6-14.8-16.9-22.3-25.1c-1.9-2.1-4-3.9-6-5.9c-0.8-0.8-1.6-1.8-3-1c-1,0.5-1.6-0.1-2.1-0.7c-2.9-3.9-7.1-4.1-11.3-4.1
		c-6.8,0-13.5,1.4-20.3,0.8c-0.9-0.1-1.6,0.4-2.1,1c-1,0.9-1.9,0.7-2.7-0.3c-1.5-1.9-3.6-2.3-5.8-2.8c-8.5-2-16.7-5.3-24.8-8.6
		c-1.3-0.5-2.4-1.4-3.9-0.5c-1.6,0.9-2.2-0.7-3.1-1.5c-6.4-5.5-12.8-11.2-19.3-16.6c-2.5-2.1-5.3-3.8-8.5-4.7
		c-1.7-0.5-2.9,0.2-4.5,0.8c-10.9,4-12.7,15-18.1,23.2c-3,4.5-5.5,9.2-8.1,13.9c-2.7,4.8-7,8-11,11.6c-0.8,0.7-1.5,0.6-2.5,0.1
		c-9-4.8-14.7-12.6-20.1-20.9c-3.2-5-6.4-10-9.8-14.9c-1.6-2.3-2.8-5.1-6.2-5.7c-0.9-0.1-1.9-1.2-2.2-2.1c-1.4-4.2-5.2-5.4-8.5-7.1
		c-5.9-3-12.1-5.5-17.2-10c-3.6-3.2-6.2-7.3-10.1-10.1c-2.2-1.5-0.5-4-1.7-6c-3.1-5.3-5.3-11.2-7.4-17c-6.1-16.8-12-33.6-18.1-50.4
		c-1.5-4-3.4-7.9-5.2-11.9c-0.6-1.3-1.4-2.3-2.5-3.3c-1.4-1.3-3.7-2.3-2.5-5.1c0.1-0.3-0.3-0.8-0.6-1.2c-4.7-6.8-9.5-13.6-16.1-18.8
		c-2.7-2.1-5.6-3.7-9.1-4.1c-2.1-0.2-3.6,0.7-5.4,1.7c-10.8,6.2-12.2,17.9-16.9,27.7c-4.3,8.9-7.4,18.4-12.1,27.1
		c-2.1,4-4.8,7.7-7.6,11.2c-1,1.3-2.1,1.1-3.8,0.9c-9.6-1.2-14.3-8.5-19.8-15c-2.9-3.5-5.6-7.2-8.7-10.5c-1.7-1.9-3.1-4.9-6.7-4
		c-0.2,0-0.5-0.1-0.6-0.3c-3.8-4.7-9-3.6-13.9-3.3c-6.4,0.4-12.6,0.4-19-1.3c-3.7-1-5.1-2.7-7.2-5.4c-7.6-9.9-12.6-21.3-19.2-31.7
		c-2.2-3.6-4.5-7.1-7.8-9.8c-1.2-1-2.3-0.8-4-0.5c-9.5,1.9-10.6,10.6-14.1,17c-5.7,10.7-10.4,21.9-15.5,32.9
		c-1.6,3.4-4.6,6-4.9,10.2c-0.1,1-1.5,2-2.5,2.8c-9.5,7.1-19.4,13.6-30.5,17.9c-1.9,0.7-3.2,2.3-4.6,3.7c-0.9,0.8-1.7,2.8-3.3,1.5
		c-1.1-0.9-0.8-7.3,1.7-6.5c0.6,0.2,1.1,0.3,1.6,0c8.7-4.7,18.4-7.7,26-14.2c1.9-1.7,4.6-2.8,4.6-6.1c0-0.4,0.7-1,1.1-1.3
		c5.9-3.8,7.9-10.1,10.8-15.9c5.7-11.6,10.3-23.8,16.7-35.1c2.6-4.6,6.2-8.4,9.9-12.2c1.1-1.1,1.8-0.8,3.2-0.2
		c9.9,4.4,14,13.6,18.9,22.1c3.9,6.6,6.9,13.9,11.9,19.8c4.7,5.5,10.2,10,18.4,9.5c6.6-0.4,13.2-0.9,19.9-0.1
		c3.4,0.4,4.8,1.6,6.8,3.6c7.4,6.9,12.7,15.5,19.6,22.8c1.6,1.7,3.3,3.3,5.3,4.5c2.1,1.2,3.5,0.8,5.9-0.1c6.6-2.5,8.3-8.4,10.7-13.6
		c5.2-11.2,9.9-22.7,14.7-34.1c2.5-5.9,6.3-11.1,9.5-16.6c1-1.7,2.7-2,5.1-2.3c14.5-1.8,21.3,8.4,29,17.4c2.5,3,4.3,6.7,7.5,9.1
		c1.2,0.9,2.4,1.9,1.5,3.8c-0.2,0.4,0.3,1.1,0.5,1.6c8.4,16.6,13.6,34.5,19.9,51.9c3,8.2,5.9,16.5,9.4,24.5c1.4,3.2,2.6,6.6,5.8,8.6
		c2.1,1.3,0.7,3.7,2,5.2c2.3,2.7,4.5,5.3,7.3,7.5c2.9,2.2,6,4.2,9.3,5.5c5.8,2.2,10.7,6.1,16.4,8.5c1.8,0.8,2.2,3.2,3.4,4.6
		c8.2,10.1,13.8,21.9,22.2,31.9c1.6,1.9,3.3,3.6,5.3,5c1.2,0.9,2.5,1.9,3.9,0.2c0.2-0.2,0.7-0.6,0.9-0.5c5,2.2,6.2-2.4,8.1-4.9
		c6.5-8.7,10.8-18.8,16.3-28.1c2.9-4.8,6.5-9.1,10.2-13.3c1-1.2,2.1-2.4,3.7-0.7c0.3,0.3,0.9,0.4,1.3,0.4c6.6-0.2,11.5,3.5,16.2,7.4
		c4.2,3.5,8.3,7.2,12.6,10.6c1.3,1.1,2.6,2.9,4.9,1.7c0.3-0.1,0.9,0.2,1.2,0.5c5.4,5.3,12.6,6.8,19.3,9.3c3.8,1.4,7.8,3.4,11.7,3.3
		c5-0.1,9.3,2.9,14.4,1.9c3.4-0.7,7-0.6,10.5-0.9c4-0.3,7.9,0.9,11.8,0.8c5.7-0.1,8.3,3.9,11.7,7c6.1,5.5,10.8,12.2,16.2,18.4
		c2.7,3.1,5.1,6.6,8.4,8.9c5.3,3.8,10.9,8,18.3,4.8c2.3-1,5-1.3,7.4-2c6.2-1.7,11.6,1,16.9,3.6c2,1,1.9,3.5,3,5.1
		c8.1,12.4,13.1,26.3,18.9,39.8c3.2,7.5,6.3,15.1,10,22.4c1.4,2.7,2.6,5.5,5.4,7.2c2,1.2,1,3.4,2,4.8c7.4,10.3,15,20.3,26.2,26.8
		c1.8,1,3.6,2.9,6,1.2c0.2-0.2,1,0.1,1.2,0.4c2.7,3.1,5.9,1.8,8.7,0.7c9.1-3.6,17.1-8.9,24.6-15.1c1.8-1.5,3.1-2,4.6,0
		c0.6,0.8,2.2,1.3,1.2,2.5c-1,1.3-2,3.5-3.9,2.8c-1.9-0.6-2.9,0.2-4.1,1c-5,3-9.9,6.2-14.9,9.1c-4.1,2.4-8.4,4.1-13.2,4.1
		c-1,0-1.8,0.3-2.5,0.9c-0.6,0.6-1.4,1-2.2,0.3c-4.6-4.6-11-6.5-15.7-10.9c-5.5-5.2-10.6-10.8-15.2-16.9c-1.7-2.3-3.2-4.8-5.8-6.4
		c-1.3-0.8-3.1-2-2-4.3c0.1-0.3-0.2-0.9-0.4-1.3c-8.6-15.4-14.3-32.2-21.6-48.2c-1.9-4.1-3.8-8.3-6-12.2c-1.6-2.9-2.7-6.5-6.5-7.8
		c-0.9-0.3-1.9-1.3-2.2-2.2C702.1,297.3,698.6,297.5,696,297.2z"/>
	<path class="st1" d="M819.9,465.1c-231.1,0-462.2,0-693.3,0c-0.6,0-1.2,0-1.8,0c-2.8-0.2-3.7,1.1-3.3,3.7c0,0,0,0,0,0
		c-0.6-3.5,1.9-3.3,4.2-3.3c21.4,0,42.7,0,64.1,0c2.2,0,4.2,0.1,4.6,1.5c0.4-1,1.7-1.5,3.8-1.5c21.8,0.1,43.7,0,65.5,0
		c2.1,0,3.6,0.5,3.8,1.7c0.3-1.5,2.2-1.7,4.4-1.7c21.5,0,43,0,64.5,0c2.2,0,4.2,0.1,4.6,1.6c0.4-1.2,1.9-1.6,4.1-1.6
		c21.5,0.1,43,0.1,64.5,0c2.4,0,4.1,0.5,4.4,1.9c0.2-1.4,1.7-1.9,4-1.9c21.8,0.1,43.7,0.1,65.5,0c2.3,0,3.6,0.7,3.9,2.8
		c0-2.4,1.8-2.8,4.1-2.8c21.6,0,43.2,0.1,64.8,0c2.2,0,3.7,0.5,4,1.7c0.3-1.7,2.4-1.7,4.6-1.7c22.9,0.2,45.8,0.2,68.6,0.2
		c22.9,0,45.8,0.1,68.6-0.2c2.3,0,4.1,0.2,4.5,1.6c0.3-1.5,2.1-1.6,4.4-1.6c21.5,0,43,0.1,64.5,0c2.3,0,3.9,0.5,4.2,1.7
		c0.1-1.7,2.3-1.7,4.5-1.7c11.9,0,23.8,0,35.7,0C819.9,465.4,819.9,465.2,819.9,465.1z"/>
</g>
<linearGradient id="SVGID_1_" gradientUnits="userSpaceOnUse" x1="474.2306" y1="528.598" x2="474.2306" y2="131.9986" gradientTransform="matrix(1 0 0 -1 0 562)">
	<stop  offset="0" style="stop-color:#FF2E46;stop-opacity:0.9"/>
	<stop  offset="0.1933" style="stop-color:#EB2C3E;stop-opacity:0.9194"/>
	<stop  offset="0.4869" style="stop-color:#D42935;stop-opacity:0.9488"/>
	<stop  offset="0.7616" style="stop-color:#C6282F;stop-opacity:0.9764"/>
	<stop  offset="0.9967" style="stop-color:#C1272D"/>
</linearGradient>
<path class="st2" d="M127.2,345c10.3-2.6,22.2,5.6,36.7,16.5c22.2,30.4,31.4,69.2,34,68.2c3.4,2.5,16.4-14.3,20-27
	c3.2-10.5,10.5-18,18.4-24.7c5.5-4.5,22.3-3.1,34,0.7c2.8,0.8,14.7-7.5,17.5-16.4c4.6-11.7,11.2-15.7,18.4-17.3
	c8.4,1.1,14.6,14.5,19.7,33.3c3.8,14.3,8.9,26.4,16.8,34c12.9,10.1,27.3-8.7,41.6-24.3c10.5-14.8,21.5-56.7,32.5-94.3
	c2.6-8.7,10.8-14.5,20.3-16.6c7.2-0.2,17,1,19.3-6.2c5.4-21.5,32.6-49.8,37.1-47.8c9,2.1,14.4,13,19.2,25.5
	c3.1,11.5,13.5,29.1,17.8,28.1c2.1,1.1,12.7-3,18.4-11.6c4.5-6.9,13-12.4,14.3-13.8c1.9-1.5,23.9-11,37.6-13.5
	c1.9-0.5,10.8,0.9,16,2.5c8.4,2.6,16.2,2.1,17.5,1.4c2.9-0.3,16.3-13.3,21-22.2c4.2-9.4,12.8-15.9,23.3-21.1
	c4.1-1.5,11.3,0.3,13.4,1.7c3.3,2.1,8.3,3.6,12.4,2.5c4.6-1.2,7.7-3.1,8.6-3.7c3.6-1.3,13-21.1,15.4-35.5
	c0.9-9.1,12.3-23.3,21.6-39.5c7.8-11.7,18.5-22.1,33.7-33.3c5.6-4.4,28.6,7.7,38.2,16.7V33.4H126.7V346"/>
<linearGradient id="SVGID_2_" gradientUnits="userSpaceOnUse" x1="533.5686" y1="270.7708" x2="533.5686" y2="257.3123" gradientTransform="matrix(1 0 0 -1 0 562)">
	<stop  offset="0" style="stop-color:#FF2E46;stop-opacity:0.9"/>
	<stop  offset="0.1933" style="stop-color:#EB2C3E;stop-opacity:0.9194"/>
	<stop  offset="0.4869" style="stop-color:#D42935;stop-opacity:0.9488"/>
	<stop  offset="0.7616" style="stop-color:#C6282F;stop-opacity:0.9764"/>
	<stop  offset="0.9967" style="stop-color:#C1272D"/>
</linearGradient>
<path class="st3" d="M533.6,291.2c0.1,0.2-0.5,5.4-2.3,7.2c-2,1.9,1.2,5.8,1.2,5.8c1,0.6,1.9,0.6,2.8,0c0.6-0.6,1-1.4,1.2-2.4
	c0.2-1.6,0-3-0.5-4.1"/>
<linearGradient id="SVGID_3_" gradientUnits="userSpaceOnUse" x1="343.4976" y1="137.2847" x2="343.4976" y2="126.7125" gradientTransform="matrix(1 0 0 -1 0 562)">
	<stop  offset="0" style="stop-color:#FF2E46;stop-opacity:0.9"/>
	<stop  offset="0.1933" style="stop-color:#EB2C3E;stop-opacity:0.9194"/>
	<stop  offset="0.4869" style="stop-color:#D42935;stop-opacity:0.9488"/>
	<stop  offset="0.7616" style="stop-color:#C6282F;stop-opacity:0.9764"/>
	<stop  offset="0.9967" style="stop-color:#C1272D"/>
</linearGradient>
<path class="st4" d="M343.5,424.7c0.1,0.2-0.4,4.3-1.8,5.6c-1.6,1.5,0.9,4.6,0.9,4.6c0.8,0.5,1.5,0.5,2.2,0c0.5-0.5,0.8-1.1,0.9-1.8
	c0.1-1.2,0-2.3-0.4-3.3"/>
<linearGradient id="SVGID_4_" gradientUnits="userSpaceOnUse" x1="527.634" y1="210.0833" x2="527.634" y2="169.5" gradientTransform="matrix(1 0 0 -1 0 562)">
	<stop  offset="0" style="stop-color:#FF2E46;stop-opacity:0.9"/>
	<stop  offset="0.1933" style="stop-color:#EB2C3E;stop-opacity:0.9194"/>
	<stop  offset="0.4869" style="stop-color:#D42935;stop-opacity:0.9488"/>
	<stop  offset="0.7616" style="stop-color:#C6282F;stop-opacity:0.9764"/>
	<stop  offset="0.9967" style="stop-color:#C1272D"/>
</linearGradient>
<path class="st5" d="M527.7,351.9c0.1,0.7-0.5,16.4-2.3,21.6c-2,5.8,1.2,17.6,1.2,17.6c1,1.9,1.9,1.8,2.8,0c0.6-1.8,1-4.3,1.2-7.1
	c0.2-4.8,0-8.9-0.5-12.5"/>
<linearGradient id="SVGID_5_" gradientUnits="userSpaceOnUse" x1="709.3472" y1="277.5" x2="709.3472" y2="264.0416" gradientTransform="matrix(1 0 0 -1 0 562)">
	<stop  offset="0" style="stop-color:#FF2E46;stop-opacity:0.9"/>
	<stop  offset="0.1933" style="stop-color:#EB2C3E;stop-opacity:0.9194"/>
	<stop  offset="0.4869" style="stop-color:#D42935;stop-opacity:0.9488"/>
	<stop  offset="0.7616" style="stop-color:#C6282F;stop-opacity:0.9764"/>
	<stop  offset="0.9967" style="stop-color:#C1272D"/>
</linearGradient>
<path class="st6" d="M709.3,284.5c-0.1,0.2,0.6,5.4,2.8,7.2c2.4,1.9-1.4,5.8-1.4,5.8c-1.2,0.6-2.3,0.6-3.3,0
	c-0.8-0.6-1.2-1.4-1.4-2.4c-0.2-1.6,0-3,0.6-4.1"/>
<linearGradient id="SVGID_6_" gradientUnits="userSpaceOnUse" x1="701.4608" y1="249" x2="701.4608" y2="238.7082" gradientTransform="matrix(1 0 0 -1 0 562)">
	<stop  offset="0" style="stop-color:#FF2E46;stop-opacity:0.9"/>
	<stop  offset="0.1933" style="stop-color:#EB2C3E;stop-opacity:0.9194"/>
	<stop  offset="0.4869" style="stop-color:#D42935;stop-opacity:0.9488"/>
	<stop  offset="0.7616" style="stop-color:#C6282F;stop-opacity:0.9764"/>
	<stop  offset="0.9967" style="stop-color:#C1272D"/>
</linearGradient>
<path class="st7" d="M701.4,313c-0.1,0.2,0.3,4.2,1.4,5.5c1.2,1.5-0.7,4.5-0.7,4.5c-0.6,0.5-1.2,0.5-1.7,0c-0.4-0.5-0.6-1.1-0.7-1.8
	c-0.1-1.2,0-2.3,0.3-3.2"/>
<linearGradient id="SVGID_7_" gradientUnits="userSpaceOnUse" x1="710.5858" y1="210.0833" x2="710.5858" y2="196.6249" gradientTransform="matrix(1 0 0 -1 0 562)">
	<stop  offset="0" style="stop-color:#FF2E46;stop-opacity:0.9"/>
	<stop  offset="0.1933" style="stop-color:#EB2C3E;stop-opacity:0.9194"/>
	<stop  offset="0.4869" style="stop-color:#D42935;stop-opacity:0.9488"/>
	<stop  offset="0.7616" style="stop-color:#C6282F;stop-opacity:0.9764"/>
	<stop  offset="0.9967" style="stop-color:#C1272D"/>
</linearGradient>
<path class="st8" d="M710.6,351.9c0.1,0.2-0.5,5.4-2.1,7.2c-1.8,1.9,1,5.8,1,5.8c0.9,0.6,1.7,0.6,2.5,0c0.6-0.6,0.9-1.4,1.1-2.4
	c0.2-1.6,0-3-0.5-4.1"/>
<linearGradient id="SVGID_8_" gradientUnits="userSpaceOnUse" x1="451.1504" y1="205.875" x2="451.1504" y2="198.2499" gradientTransform="matrix(1 0 0 -1 0 562)">
	<stop  offset="0" style="stop-color:#FF2E46;stop-opacity:0.9"/>
	<stop  offset="0.1933" style="stop-color:#EB2C3E;stop-opacity:0.9194"/>
	<stop  offset="0.4869" style="stop-color:#D42935;stop-opacity:0.9488"/>
	<stop  offset="0.7616" style="stop-color:#C6282F;stop-opacity:0.9764"/>
	<stop  offset="0.9967" style="stop-color:#C1272D"/>
</linearGradient>
<path class="st9" d="M451.2,356.1c0.1,0.1-0.5,3.1-2.3,4.1c-2,1.1,1.2,3.3,1.2,3.3c1,0.4,1.9,0.3,2.8,0c0.6-0.3,1-0.8,1.2-1.3
	c0.2-0.9,0-1.7-0.5-2.3"/>
<linearGradient id="SVGID_9_" gradientUnits="userSpaceOnUse" x1="516.6089" y1="241.1458" x2="516.6089" y2="236.2707" gradientTransform="matrix(1 0 0 -1 0 562)">
	<stop  offset="0" style="stop-color:#FF2E46;stop-opacity:0.9"/>
	<stop  offset="0.1933" style="stop-color:#EB2C3E;stop-opacity:0.9194"/>
	<stop  offset="0.4869" style="stop-color:#D42935;stop-opacity:0.9488"/>
	<stop  offset="0.7616" style="stop-color:#C6282F;stop-opacity:0.9764"/>
	<stop  offset="0.9967" style="stop-color:#C1272D"/>
</linearGradient>
<path class="st10" d="M516.6,320.9c0.1,0.1-0.3,2-1.4,2.6c-1.2,0.7,0.7,2.1,0.7,2.1c0.6,0.2,1.2,0.2,1.7,0c0.4-0.2,0.6-0.5,0.7-0.9
	c0.1-0.6,0-1.1-0.3-1.5"/>
<text transform="matrix(1 0 0 1 126.6981 45.1029)" class="st11 st12 st13">94</text>
<g>
</g>
<text transform="matrix(1 0 0 1 158.2634 45.1036)" class="st11 st12 st13">95</text>
<text transform="matrix(1 0 0 1 195.3562 45.1029)" class="st11 st12 st13">96</text>
<text transform="matrix(1 0 0 1 231.9386 45.1029)" class="st11 st12 st13">97</text>
<text transform="matrix(1 0 0 1 264.2634 45.1029)" class="st11 st12 st13">98</text>
<text transform="matrix(1 0 0 1 301.7634 45.1029)" class="st11 st12 st13">99</text>
<text transform="matrix(1 0 0 1 340.2634 45.1029)" class="st11 st12 st13">00</text>
<text transform="matrix(1 0 0 1 377.2634 45.1029)" class="st11 st12 st13">01</text>
<text transform="matrix(1 0 0 1 413.2634 45.1036)" class="st11 st12 st13">02</text>
<text transform="matrix(1 0 0 1 449.2634 45.1029)" class="st11 st12 st13">03</text>
<text transform="matrix(1 0 0 1 486.7634 45.1029)" class="st11 st12 st13">04</text>
<text transform="matrix(1 0 0 1 522.2355 45.1036)" class="st11 st12 st13">05</text>
<text transform="matrix(1 0 0 1 560.7634 45.1029)" class="st11 st12 st13">06</text>
<text transform="matrix(1 0 0 1 593.2326 45.1031)" class="st11 st12 st13">07</text>
<text transform="matrix(1 0 0 1 632.7634 45.1029)" class="st11 st12 st13">08</text>
<text transform="matrix(1 0 0 1 671.2634 45.1029)" class="st11 st12 st13">09</text>
<text transform="matrix(1 0 0 1 706.9298 45.1036)" class="st11 st12 st13">10</text>
<text transform="matrix(1 0 0 1 742.2788 45.1032)" class="st11 st12 st13">11</text>
<text transform="matrix(1 0 0 1 778.7634 45.1029)" class="st11 st12 st13">12</text>
<text transform="matrix(1 0 0 1 809.7634 45.1029)" class="st11 st12 st13">13</text>
</svg>
