<?xml version="1.0" encoding="utf-8"?>
<!-- Generator: Adobe Illustrator 21.0.0, SVG Export Plug-In . SVG Version: 6.00 Build 0)  -->
<svg version="1.1" id="Layer_1" xmlns="http://www.w3.org/2000/svg" xmlns:xlink="http://www.w3.org/1999/xlink" x="0px" y="0px"
	 viewBox="0 0 1366 768" style="enable-background:new 0 0 1366 768;" xml:space="preserve">
<style type="text/css">
	.st0{display:none;}
	.st1{display:inline;fill:#FEFEFE;}
	.st2{display:inline;fill:#353535;}
	.st3{display:inline;fill:#3C3C3C;}
	.st4{display:inline;fill:#7B7B7B;}
	.st5{display:inline;fill:#484848;}
	.st6{display:inline;fill:#454545;}
	.st7{display:inline;fill:#818181;}
	.st8{display:inline;fill:#FAFAFA;}
	.st9{display:inline;fill:#F8F8F8;}
	.st10{display:inline;fill:#FBFBFB;}
	.st11{display:inline;fill:#EEEEEE;}
	.st12{display:inline;fill:#EBEBEB;}
	.st13{display:inline;fill:#E3E3E3;}
	.st14{display:inline;fill:#F2F2F2;}
	.st15{display:inline;fill:#4A4A4A;}
	.st16{display:inline;fill:#535353;}
	.st17{display:inline;fill:#4B4B4B;}
	.st18{display:inline;fill:#505050;}
	.st19{display:inline;fill:#494949;}
	.st20{display:inline;fill:#838383;}
	.st21{display:inline;fill:#8A8A8A;}
	.st22{display:inline;fill:#858585;}
	.st23{fill:#545454;}
	.st24{fill:#FFFFFF;}
	.st25{fill:#636157;}
	.st26{fill:#3F3F3F;}
	.st27{fill:#59474C;}
	.st28{fill:#333333;}
	.st29{fill:#3C3B49;}
	.st30{font-family:'Impact';}
	.st31{font-size:41px;}
</style>
<g class="st0">
	<path class="st1" d="M453.7,616c-177.8,0-355.7,0-533.5,0.1c-4.2,0-5.1-0.9-5.1-5.1c0.1-146.2,0.1-292.4,0-438.7
		c0-4.2,0.9-5.1,5.1-5.1c356.1,0.1,712.1,0.1,1068.2,0c4.2,0,5.1,0.9,5.1,5.1c-0.1,146.2-0.1,292.4,0,438.7c0,4.2-0.9,5.1-5.1,5.1
		C810.1,616,631.9,616,453.7,616z"/>
	<path class="st2" d="M957.6,364.8c3.2,86.7-72.5,167.6-170.3,162.1c-38.5-2.2-72.3-15.8-100-41.2c-38.8-35.5-56-81-52.3-134
		c2.4-33.6,14.5-63.9,35.7-89.1c35.7-42.5,82.3-61.7,138.3-58.6C884.2,208.3,959.5,275,957.6,364.8z"/>
	<path class="st3" d="M463.2,231c4.7,0,9.3,0.4,13.9-0.1c6.3-0.6,12.1,1.2,17.9,2.8c8.4,2.3,17.4,4.1,24.8,8.3
		c6.4,3.6,13.6,6.2,19.3,11.3c4.3,3.8,9.7,6.3,13.8,10.2c6.1,5.9,12.3,11.9,17.2,19c4.8,7,9.3,14.2,14,21.2c2.2,3.4,3.2,7.4,4.7,11
		c2.9,6.7,3.8,14.2,6.2,21.2c2.1,6.1,2.3,12.3,2,18.6c-0.6,14,2,28.2-2.2,42c-2.2,7.1-3.1,14.4-7,21.2c-2.6,4.6-4.8,9.7-7,14.7
		c-3.3,7.4-8.7,13.2-13.4,19.5c-8.1,10.7-18.5,18.9-29.6,26.5c-14.1,9.6-29.3,16-46,19.7c-16.8,3.7-33.7,2.4-50.3,1.5
		c-10.9-0.6-22-4.5-32.5-9c-10.2-4.4-19-10.7-28.1-16.7c-11.7-7.6-20.3-18-28.7-28.6c-7.4-9.3-11.8-20.5-16.7-31.4
		c-10.2-22.7-7.2-46.4-7.2-69.8c0-7.1,2.1-14.8,4.7-21.2c4.8-11.5,9.7-23,17.1-33.5c7-9.9,14.5-19.2,23.7-27
		c14.9-12.6,31.5-22,50.7-27.2C437.5,231.6,450.2,230.6,463.2,231z"/>
	<path class="st4" d="M192.2,267.9c19.5-2.6,36.6,4.3,52.8,13.7c14.4,8.4,25,20.7,33.5,35.1c14.2,24,14.4,49.7,9.2,75.7
		c-2.8,14.3-10.1,26.9-20,38.2c-15.8,17.9-35,30.2-58.6,33c-18.8,2.2-38,2.3-56.2-5.9c-17.2-7.8-31.8-18.8-42.5-34.3
		c-10.3-14.8-17.5-31.2-16.6-49.9c0.5-11.2-1.2-22.5,2-33.7c4-13.9,10.5-26.3,19.6-37.5c14.7-18,33.8-28.9,56.3-33.9
		C178.5,266.9,185.4,268.3,192.2,267.9z"/>
	<path class="st1" d="M943.1,365.4c-0.3,82.6-66.2,141.8-135.2,146.2c-42.9,2.8-80.5-9.5-111.7-38.7
		c-30.9-28.9-46.6-65.5-46.6-107.9c0.1-80.3,64.7-146.9,147.7-146.3C877.9,219.3,942.6,283.9,943.1,365.4z"/>
	<path class="st1" d="M463.1,487.7c-71.3-1.5-123-56.7-122.2-123.1c0.8-69.5,54.4-120.3,120.3-121c69.7-0.7,123.1,54.5,123.1,121.8
		C584.3,433.9,531.1,485.1,463.1,487.7z"/>
	<path class="st1" d="M191.7,454.2c-45.7,1.7-90.5-38.9-88.1-92.7c1.9-43.1,38.3-86.4,93.8-83.6c41.8,2.1,85.5,37.3,82.8,93.7
		C278.1,414.3,241.4,455.3,191.7,454.2z"/>
	<path class="st5" d="M937.5,363.1c0.5,81.2-63.2,142.8-138.9,143.3c-81.3,0.6-137-59.7-142.7-126.5c-8.1-94.8,64.5-151.6,129-155.4
		C876.3,219.2,936.7,289.2,937.5,363.1z"/>
	<path class="st6" d="M344.2,362.3c-1.8-21,8.9-49.9,29.8-74c18-20.9,41.8-33.9,69.6-38.1c39.5-5.9,73.9,5.6,101.8,33.4
		c25.4,25.3,36.9,57.3,33.5,93.1c-6.1,63.5-60.9,109.8-122.5,106.3C386.1,479,347.7,421.9,344.2,362.3z"/>
	<path class="st7" d="M275.6,366.9c-1.6,47.8-35.3,78.4-72.7,82.2c-58.8,6-94.3-37.9-94.6-81.8c-0.3-48.8,36.3-82,77.5-84.6
		C239,279.3,275.4,320,275.6,366.9z"/>
	<path class="st8" d="M804.3,374.9c-7.5-0.1-11.4-6.4-7.8-13c1.1-2,1.3-3.4,0.6-5.5c-1-3.1-0.3-6,2.7-7.7c3.1-1.8,6.5-1.9,9.5-0.1
		c2.9,1.7,3.9,4.6,2.9,7.7c-0.8,2.4-0.3,4,0.8,6.1C816.1,369,811.8,375.1,804.3,374.9z"/>
	<path class="st8" d="M771.6,374.9c-7.6,0-11.7-6.3-8.1-12.8c1.2-2.2,1.3-3.7,0.5-6c-1.1-2.8,0-5.6,2.6-7.3c3-2,6.4-2,9.5-0.4
		c2.8,1.4,3.8,4.1,3.2,7.1c-0.5,2.3-0.9,4.2,0.5,6.7C783.4,368.6,779.2,374.9,771.6,374.9z"/>
	<path class="st9" d="M747.4,374.6c-2.1-0.9-6.1,1.9-7.2-2.1c-1.2-4.4,0.3-8.5,4.5-11c2.1-1.2,4.2-2.4,6.2-3.7
		c1.3-0.9,2.2-2.1,1.8-3.8c-0.4-1.6-1.7-2.4-3.3-2.6c-0.6-0.1-1.1-0.1-1.7-0.2c-2.2-0.5-6.4,0.9-6.2-1.6c0.3-3.4,4.5-1.6,7-1.7
		c3.7-0.2,7.2,0.8,8.2,5.1c1,4.1-1.2,6.7-4.5,8.7c-2.4,1.4-5,2.5-6.9,4.6c-0.9,1-1.5,2.3-1.2,3.6c0.5,1.6,2.1,1.3,3.3,1.3
		c1.9,0.1,3.7-0.1,5.6,0.1c1.4,0.1,3.5-0.5,3.4,1.7c-0.1,2-2.2,1.5-3.6,1.6C751.2,374.7,749.5,374.6,747.4,374.6z"/>
	<path class="st8" d="M838,366.6c4.6,0.9,8.3,1.4,7.8-4.5c-0.1-1.2,0.6-2.2,2-2.1c1.5,0.1,1.5,1.3,1.6,2.5c0.1,2.2,0.5,3.5,2.5,5.3
		c2.4,2.2-3.6,3-3.1,6.1c0.1,0.5-2.1,0.7-2.3-0.1c-1.3-4.7-5.1-3.3-8.1-3.4c-5.2-0.2-6-1.4-3.7-6c2.5-5,5.3-9.8,8-14.6
		c0.8-1.5,2.2-2.4,3.7-1.6c2.3,1.1,0.3,2.6-0.3,3.6C843.5,356.6,840.8,361.4,838,366.6z"/>
	<path class="st10" d="M825.9,361.6c0,2.8,0.1,5.5-0.1,8.3c-0.1,1.6,1.1,4.4-1.9,4.2c-2.6-0.1-1.7-2.9-1.7-4.5
		c-0.1-4.6-0.1-9.2,0-13.8c0-2.7-0.3-4.8-3.8-4.7c-1.1,0-2.4-0.2-2.3-1.7c0.1-1.5,1.4-1.3,2.5-1.5c6.1-0.9,7.2,0,7.3,5.9
		C825.9,356.4,825.9,359,825.9,361.6z"/>
	<path class="st11" d="M789.1,374c-0.1,1.4-0.1,3-1.7,3c-1.6,0-1.4-1.9-1.7-3c-0.3-1.2,0-2.2,1.4-2.4C789,371.4,789,372.8,789.1,374
		z"/>
	<path class="st8" d="M433,378.3c-7.6,0.1-11.8-6.1-8.4-12.7c1.1-2.1,1.6-3.7,0.7-6c-1-2.8-0.3-5.6,2.4-7.4c3.2-2.1,6.7-2.1,10-0.2
		c2.6,1.5,3.7,4.3,2.8,7.2c-0.8,2.5-0.4,4.3,0.7,6.6C444.3,372.2,440.2,378.2,433,378.3z"/>
	<path class="st8" d="M465.8,378.3c-7.8,0-11.7-6.4-7.9-13.3c1-1.8,1.3-3,0.4-5c-1.3-3-0.4-6,2.4-7.8c3-2,6.4-2,9.5-0.4
		c3,1.5,4,4.5,3.1,7.6c-0.6,2.2-0.7,3.9,0.6,6.1C477.5,371.9,473.4,378.3,465.8,378.3z"/>
	<path class="st9" d="M509.7,377.8c-1.9-1.1-6.2,2.5-7.3-2.2c-1-4.5,0.6-8.4,4.8-10.8c0.2-0.1,0.3-0.2,0.5-0.3
		c2.6-2.1,7.8-2.5,7.2-6.7c-0.7-4.8-5.7-2.7-8.9-3.3c-1.1-0.2-2.4-0.2-2.5-1.6c-0.1-1.5,1.3-1.6,2.4-1.6c1.8-0.1,3.7-0.1,5.6,0
		c3.6,0.1,6.7,1.2,7.6,5.2c0.9,3.8-0.9,6.4-4,8.4c-2.3,1.5-4.7,2.9-7,4.5c-1.2,0.9-2,2.4-1.6,3.9c0.5,1.9,2.4,1.3,3.8,1.4
		c2.2,0.1,4.4,0,6.7,0.1c0.9,0,1.9,0.3,2,1.5c0,1.1-0.9,1.6-1.8,1.6C514.8,377.8,512.6,377.8,509.7,377.8z"/>
	<path class="st8" d="M483,370c4.6,0.8,8.3,1.5,7.8-4.5c-0.1-1.2,0.5-2.2,2-2.1c1.5,0.1,1.6,1.3,1.6,2.4c0.1,2.1-0.4,4.2,2.6,5.3
		c1.4,0.5,0.5,2.5-1,2.6c-2.5,0.1-1.9,6.7-4.3,3.3c-2.8-4-5.8-3.1-8.9-3.1c-3.9,0-5.4-1.6-3.7-5.1c2.6-5.3,5.6-10.4,8.5-15.6
		c0.8-1.5,2.1-2.4,3.6-1.7c2.1,1.1,0.3,2.5-0.2,3.6C488.5,359.9,485.8,364.8,483,370z"/>
	<path class="st12" d="M416,364.7c0,3.3,0,6.7,0,10c0,1.5-0.2,3.2-2.3,3c-1.8-0.2-1.7-1.7-1.7-3c0-5.2-0.1-10.4,0-15.5
		c0-2.7-0.2-4.8-3.7-4.7c-1.1,0.1-2.4-0.3-2.3-1.8c0-1.5,1.4-1.4,2.5-1.6c6.2-1,7.6,0.1,7.6,6.4C416,359.9,416,362.3,416,364.7
		C416,364.7,416,364.7,416,364.7z"/>
	<path class="st13" d="M448.7,380.6c-1.7-0.9-1.6-2.5-2-3.8c-0.3-1.3,0.6-2.1,1.9-2c2.1,0.2,2,1.8,1.8,3.3
		C450.2,379.2,449.8,380.2,448.7,380.6z"/>
	<path class="st10" d="M235.5,374.9c-7.2-0.2-11.1-6.2-7.9-12.7c1.1-2.2,1.5-3.8,0.6-6.1c-1.1-2.9,0-5.6,2.6-7.3
		c3-2,6.3-2.1,9.5-0.4c2.6,1.3,3.7,3.9,3.1,6.6c-0.7,3.1-0.1,5.5,1.1,8.3C247.2,369.4,242.6,375.1,235.5,374.9z"/>
	<path class="st10" d="M148.4,347.3c6.9,0.1,11.9,6.8,9.2,13.1c-1.9,4.4-4.7,8.4-7.2,12.5c-0.8,1.4-2.3,2.2-3.8,1.3
		c-1.3-0.8-0.4-2.1,0.2-2.9c2.6-3.5,0-4.1-2.5-5.2c-4.8-2.1-6.8-6.3-5.7-11.4C139.5,350.4,143.7,347.2,148.4,347.3z"/>
	<path class="st10" d="M195.1,358.1c-1.1,5.5-5.2,10.5-8.9,15.8c-0.6,0.9-2.1,1-3,0.1c-0.8-0.8-0.3-1.8,0.2-2.5
		c2.9-3.7,0.1-4.3-2.6-5.5c-4.9-2.2-6.8-7-5.2-12c1.4-4.4,6.2-7.2,11-6.5C191.4,348.1,195,352.1,195.1,358.1z"/>
	<path class="st10" d="M210.1,347.3c7.3-0.1,12.6,6.5,10,12.9c-1.9,4.6-4.9,8.7-7.5,13c-0.7,1.2-2.1,1.9-3.4,1.2
		c-1.8-0.9-0.6-2.3,0.1-3.2c2.4-3.3,0-3.9-2.4-4.8c-5.1-2-6.9-6.1-5.9-11.2C202,349.9,205.7,347.7,210.1,347.3z"/>
	<path class="st14" d="M168.4,374.4c-0.2,1.1-0.3,2.4-1.8,2.2c-1.3-0.2-1.3-1.6-1.4-2.7c-0.1-1.2,0.3-2.2,1.8-2.1
		C168.5,372.1,168.3,373.4,168.4,374.4z"/>
	<path class="st15" d="M804.7,371.5c-3-0.4-5.4-1.8-5.5-5.1c0-3,2-4.8,5-4.9c3.3-0.1,5.4,1.6,5.5,4.9
		C809.8,369.6,807.6,371,804.7,371.5z"/>
	<path class="st16" d="M808.2,354.6c-0.3,2.2-1.7,3.2-3.8,3.1c-2.1-0.1-3.6-1.1-3.6-3.3c0-2.5,1.7-3.6,4-3.4
		C806.9,351.1,808.2,352.4,808.2,354.6z"/>
	<path class="st17" d="M771.5,371.5c-3.1-0.5-5.3-2-5.2-5c0-3.2,2.1-5.2,5.4-5c2.9,0.1,5,1.7,5,4.8
		C776.8,369.8,774.4,371.1,771.5,371.5z"/>
	<path class="st16" d="M771.8,357.8c-2-0.1-3.7-0.8-4-3.1c-0.3-2.3,1.2-3.4,3.2-3.7c2.4-0.3,4.2,0.9,4.3,3.3
		C775.6,356.4,774,357.5,771.8,357.8z"/>
	<path class="st5" d="M432.8,374.9c-3.1-0.5-5.4-2-5.3-5.4c0.1-3,2.2-4.7,5.2-4.7c3.3,0,5.3,1.8,5.3,5.2
		C437.9,373.2,435.6,374.4,432.8,374.9z"/>
	<path class="st18" d="M436.6,358c-0.4,2.2-1.8,3.2-3.9,3.1c-2.3-0.1-3.9-1.4-3.5-3.9c0.3-2.2,2.1-3,4.1-2.8
		C435.3,354.5,436.6,355.8,436.6,358z"/>
	<path class="st19" d="M466,364.8c2.9,0.4,5.2,1.8,5,5.2c-0.2,3.3-2.5,4.9-5.6,4.7c-2.9-0.1-5-1.9-4.9-4.9
		C460.5,366.7,462.6,364.9,466,364.8z"/>
	<path class="st18" d="M465.5,354.3c2.2,0.1,4,1.1,4.1,3.2c0.2,2.5-1.6,3.7-3.9,3.6c-2.1,0-3.6-1.1-3.7-3.4
		C462,355.3,463.7,354.6,465.5,354.3z"/>
	<path class="st20" d="M241.1,366.7c-0.5,3.2-2.6,4.8-5.7,4.6c-2.9-0.2-4.9-2-4.7-5c0.2-3.2,2.4-4.9,5.6-4.7
		C239.2,361.8,240.9,363.6,241.1,366.7z"/>
	<path class="st21" d="M236.1,357.8c-2.1-0.2-3.7-1-3.9-3.3c-0.1-2.3,1.4-3.4,3.5-3.5c2.1-0.1,3.7,1.1,3.9,3.2
		C239.7,356.4,238.1,357.5,236.1,357.8z"/>
	<path class="st22" d="M148,363.4c-3.6-0.7-5.9-2.8-5.7-6.5c0.2-3.5,2.4-6,6.1-5.9c3.6,0.2,5.7,2.6,5.6,6.3
		C153.9,361,151.6,362.9,148,363.4z"/>
	<path class="st22" d="M191,356.8c-0.2,3.7-2,6.2-5.7,6.4c-3.7,0.2-6-2.3-6.1-5.8c-0.1-3.6,2-6.1,5.7-6.3
		C188.5,350.9,190.5,353.3,191,356.8z"/>
	<path class="st22" d="M216.6,357.1c-0.4,3.6-2.3,6.1-5.9,6.1c-3.7,0-5.9-2.5-5.9-6.1c0-3.5,2.2-6.1,5.9-6.1
		C214.4,351,216.3,353.5,216.6,357.1z"/>
</g>
<circle class="st23" cx="249.8" cy="364.2" r="98.1"/>
<circle class="st24" cx="249.8" cy="364.2" r="88.5"/>
<circle class="st25" cx="249.8" cy="364.2" r="82.5"/>
<circle class="st26" cx="603.7" cy="364.2" r="135.6"/>
<circle class="st24" cx="603.7" cy="364.2" r="122"/>
<circle class="st27" cx="603.7" cy="364.2" r="116"/>
<circle class="st28" cx="1017.9" cy="363.2" r="161.4"/>
<circle class="st24" cx="1017.9" cy="363.2" r="147.1"/>
<circle class="st29" cx="1017.9" cy="363.2" r="140.9"/>
<text transform="matrix(1 0 0 1 205.3196 378.0002)" class="st24 st30 st31">9989</text>
<text transform="matrix(1 0 0 1 551.8812 378.0002)" class="st24 st30 st31">18842</text>
<text transform="matrix(1 0 0 1 962.2047 377.9999)" class="st24 st30 st31">28814</text>
</svg>
