<?xml version="1.0" encoding="utf-8"?>
<!-- Generator: Adobe Illustrator 21.0.0, SVG Export Plug-In . SVG Version: 6.00 Build 0)  -->
<svg version="1.1" id="Layer_1" xmlns="http://www.w3.org/2000/svg" xmlns:xlink="http://www.w3.org/1999/xlink" x="0px" y="0px"
	 viewBox="0 0 1600 570" style="enable-background:new 0 0 1600 570;" xml:space="preserve">
<style type="text/css">
	.st0{fill:#757575;}
	.st1{fill:#FFFFFF;}
	.st2{fill:#FF6A72;}
	.st3{font-family:'Haettenschweiler';}
	.st4{font-size:37.7292px;}
	.st5{letter-spacing:1;}
	.st6{font-size:65.4805px;}
	.st7{letter-spacing:3;}
	.st8{font-size:37.648px;}
	.st9{font-size:65.3394px;}
	.st10{font-size:37.5579px;}
	.st11{font-size:37.081px;}
	.st12{font-size:64.3554px;}
	.st13{font-size:37.4884px;}
	.st14{font-size:65.0626px;}
	.st15{font-size:37.4813px;}
	.st16{font-size:65.0502px;}
	.st17{font-size:37.1304px;}
	.st18{font-size:64.4412px;}
	.st19{font-size:37.4367px;}
	.st20{font-size:64.9728px;}
	.st21{font-size:37.2834px;}
	.st22{font-size:64.7067px;}
	.st23{font-size:37.4647px;}
	.st24{font-size:65.0147px;}
	.st25{font-size:37.5546px;}
	.st26{font-size:65.1774px;}
	.st27{font-size:65.1831px;}
</style>
<path class="st0" d="M1322,321.1v191.5c0,0-0.3,22.5,22.5,22.5c22.8,0,191.5,0,191.5,0s22.6-0.3,22.6-22.6c0-22.3,0-191.3,0-191.3
	s-0.6-22.7-22.7-22.7s-191.4,0-191.4,0S1322,299.3,1322,321.1z"/>
<path class="st1" d="M1331,328.1v177.1c0,0-0.3,20.8,20.8,20.8c21.1,0,177.1,0,177.1,0s20.9-0.3,20.9-20.9c0-20.6,0-176.9,0-176.9
	s-0.6-21-21-21c-20.4,0-177,0-177,0S1331,307.9,1331,328.1z"/>
<path class="st0" d="M1335.7,332.3v169.2c0,0-0.3,19.8,19.8,19.8c20.1,0,169.2,0,169.2,0s20-0.3,20-20s0-169,0-169s-0.6-20-20-20
	c-19.5,0-169.1,0-169.1,0S1335.7,313,1335.7,332.3z"/>
<rect x="1335.6" y="355.2" class="st1" width="209.2" height="5.3"/>
<path class="st2" d="M1335.6,414.5h209.2v93.4c0,0,0.3,13.3-20,13.3c-20.3,0-169.3,0-169.3,0c-11.2-0.2-18.7-3.7-19.8-13.1
	L1335.6,414.5z"/>
<text transform="matrix(1 0 0 1 1416.8926 345.9043)" class="st1 st3 st4 st5">DEC</text>
<text transform="matrix(1 0 0 1 1395.8721 501.2412)" class="st1 st3 st6 st7">743</text>
<path class="st0" d="M1064,321.1v191c0,0-0.3,22.4,22.4,22.4c22.7,0,191,0,191,0s22.6-0.3,22.6-22.6s0-190.9,0-190.9
	s-0.6-22.6-22.6-22.6c-22,0-191,0-191,0S1064,299.3,1064,321.1z"/>
<path class="st1" d="M1073,328.1v176.7c0,0-0.3,20.7,20.7,20.7c21,0,176.7,0,176.7,0s20.9-0.3,20.9-20.9c0-20.6,0-176.5,0-176.5
	s-0.6-20.9-20.9-20.9s-176.6,0-176.6,0S1073,307.9,1073,328.1z"/>
<path class="st0" d="M1077.7,332.2V501c0,0-0.3,19.8,19.8,19.8c20.1,0,168.8,0,168.8,0s19.9-0.3,19.9-19.9c0-19.7,0-168.7,0-168.7
	s-0.5-20-20-20c-19.5,0-168.8,0-168.8,0S1077.7,313,1077.7,332.2z"/>
<rect x="1077.5" y="355.1" class="st1" width="208.8" height="5.3"/>
<path class="st2" d="M1077.5,393.7h208.8v111.2c0,0,0.3,15.8-19.9,15.8s-168.9,0-168.9,0c-11.2-0.2-18.7-4.4-19.8-15.7L1077.5,393.7
	z"/>
<text transform="matrix(1 0 0 1 1158.6865 345.8281)" class="st1 st3 st8 st5">NOV</text>
<text transform="matrix(1 0 0 1 1143.623 500.8311)" class="st1 st3 st9 st7">902</text>
<path class="st0" d="M807.6,322.6v190.6c0,0-0.3,22.3,22.3,22.3s190.6,0,190.6,0s22.5-0.3,22.5-22.5c0-22.2,0-190.4,0-190.4
	s-0.6-22.6-22.6-22.6c-22,0-190.5,0-190.5,0S807.6,300.9,807.6,322.6z"/>
<path class="st1" d="M816.6,329.6v176.3c0,0-0.3,20.7,20.7,20.7s176.3,0,176.3,0s20.8-0.3,20.8-20.8c0-20.5,0-176.1,0-176.1
	s-0.6-20.9-20.9-20.9s-176.2,0-176.2,0S816.6,309.5,816.6,329.6z"/>
<path class="st0" d="M821.2,333.7v168.4c0,0-0.3,19.7,19.7,19.7s168.4,0,168.4,0s19.9-0.3,19.9-19.9c0-19.6,0-168.3,0-168.3
	s-0.5-20-20-20s-168.3,0-168.3,0S821.2,314.5,821.2,333.7z"/>
<rect x="821.1" y="356.6" class="st1" width="208.3" height="5.3"/>
<path class="st2" d="M821.1,391.6h208.3v113.9c0,0,0.3,16.2-19.9,16.2s-168.5,0-168.5,0c-11.2-0.2-18.6-4.5-19.7-16L821.1,391.6z"/>
<text transform="matrix(1 0 0 1 902.0264 347.2769)" class="st1 st3 st10 st5">OCT</text>
<path class="st0" d="M554.6,322.3v188.2c0,0-0.3,22.1,22.1,22.1c22.4,0,188.2,0,188.2,0s22.2-0.3,22.2-22.2s0-188,0-188
	s-0.6-22.3-22.3-22.3s-188.1,0-188.1,0S554.6,300.8,554.6,322.3z"/>
<path class="st1" d="M563.4,329.2v174c0,0-0.3,20.4,20.4,20.4s174,0,174,0s20.5-0.3,20.5-20.5s0-173.9,0-173.9s-0.6-20.6-20.6-20.6
	s-174,0-174,0S563.4,309.3,563.4,329.2z"/>
<path class="st0" d="M568,333.2v166.3c0,0-0.3,19.5,19.5,19.5s166.3,0,166.3,0s19.6-0.3,19.6-19.6c0-19.4,0-166.1,0-166.1
	s-0.5-19.7-19.7-19.7c-19.2,0-166.2,0-166.2,0S568,314.3,568,333.2z"/>
<rect x="567.9" y="355.8" class="st1" width="205.6" height="5.2"/>
<path class="st2" d="M567.9,408.5h205.6v96.6c0,0,0.3,13.7-19.6,13.7c-19.9,0-166.4,0-166.4,0c-11-0.2-18.4-3.9-19.5-13.6
	L567.9,408.5z"/>
<text transform="matrix(1 0 0 1 647.8159 346.6465)" class="st1 st3 st11 st5">SEP</text>
<text transform="matrix(1 0 0 1 632.98 499.3149)" class="st1 st3 st12 st7">787</text>
<path class="st0" d="M297,321.1v191c0,0-0.3,22.4,22.4,22.4s191,0,191,0S533,534.2,533,512c0-22.2,0-190.9,0-190.9
	s-0.6-22.6-22.6-22.6s-191,0-191,0S297,299.3,297,321.1z"/>
<path class="st1" d="M306,328.1v176.7c0,0-0.3,20.7,20.7,20.7s176.7,0,176.7,0s20.9-0.3,20.9-20.9s0-176.5,0-176.5
	s-0.6-20.9-20.9-20.9c-20.4,0-176.6,0-176.6,0S306,308,306,328.1z"/>
<path class="st0" d="M310.7,332.2V501c0,0-0.3,19.8,19.8,19.8c20.1,0,168.8,0,168.8,0s19.9-0.3,19.9-19.9s0-168.7,0-168.7
	s-0.5-20-20-20s-168.8,0-168.8,0S310.7,313,310.7,332.2z"/>
<rect x="310.5" y="355.2" class="st1" width="208.8" height="5.3"/>
<path class="st2" d="M310.5,367h208.8v134.6c0,0,0.3,19.1-19.9,19.1c-20.2,0-168.9,0-168.9,0c-11.2-0.3-18.7-5.4-19.8-19L310.5,367z
	"/>
<text transform="matrix(1 0 0 1 391.6875 345.8374)" class="st1 st3 st8 st5">AUG</text>
<path class="st0" d="M42,322v190.2c0,0-0.3,22.3,22.3,22.3s190.2,0,190.2,0s22.5-0.3,22.5-22.5c0-22.2,0-190.1,0-190.1
	s-0.6-22.5-22.5-22.5c-21.9,0-190.2,0-190.2,0S42,300.3,42,322z"/>
<path class="st1" d="M51,329v175.9c0,0-0.3,20.6,20.6,20.6s175.9,0,175.9,0s20.8-0.3,20.8-20.8c0-20.5,0-175.8,0-175.8
	s-0.6-20.8-20.8-20.8s-175.9,0-175.9,0S51,308.9,51,329z"/>
<path class="st0" d="M55.6,333.1v168.1c0,0-0.3,19.7,19.7,19.7s168.1,0,168.1,0s19.8-0.3,19.8-19.8c0-19.6,0-168,0-168
	s-0.5-19.9-19.9-19.9s-168,0-168,0S55.6,313.9,55.6,333.1z"/>
<rect x="55.5" y="355.9" class="st1" width="207.9" height="5.3"/>
<path class="st2" d="M55.5,382.3h207.9v121.3c0,0,0.3,17.2-19.8,17.2s-168.2,0-168.2,0c-11.1-0.2-18.6-4.8-19.7-17.1L55.5,382.3z"/>
<text transform="matrix(1 0 0 1 136.2866 346.6411)" class="st1 st3 st13 st5">JUL</text>
<text transform="matrix(1 0 0 1 121.2876 500.9858)" class="st1 st3 st14 st7">980</text>
<path class="st0" d="M1323,57.7v190.2c0,0-0.3,22.3,22.3,22.3c22.6,0,190.2,0,190.2,0s22.5-0.3,22.5-22.5s0-190,0-190
	s-0.6-22.5-22.5-22.5c-21.9,0-190.1,0-190.1,0S1323,36,1323,57.7z"/>
<path class="st1" d="M1332,64.7v175.9c0,0-0.3,20.6,20.6,20.6c20.9,0,175.9,0,175.9,0s20.8-0.3,20.8-20.8s0-175.8,0-175.8
	s-0.6-20.8-20.8-20.8s-175.8,0-175.8,0S1332,44.7,1332,64.7z"/>
<path class="st0" d="M1336.7,68.8v168.1c0,0-0.3,19.7,19.7,19.7c20,0,168.1,0,168.1,0s19.8-0.3,19.8-19.8s0-167.9,0-167.9
	s-0.5-19.9-19.9-19.9s-168,0-168,0S1336.7,49.7,1336.7,68.8z"/>
<rect x="1336.5" y="91.6" class="st1" width="207.9" height="5.3"/>
<path class="st2" d="M1336.5,126.3h207.9v113.9c0,0,0.3,16.2-19.8,16.2c-20.1,0-168.2,0-168.2,0c-11.1-0.2-18.6-4.5-19.7-16
	L1336.5,126.3z"/>
<text transform="matrix(1 0 0 1 1417.3154 82.3735)" class="st1 st3 st15 st5">JUN</text>
<text transform="matrix(1 0 0 1 1402.3184 236.6909)" class="st1 st3 st16 st7">924</text>
<path class="st0" d="M1065.1,59.5v188.4c0,0-0.3,22.1,22.1,22.1s188.4,0,188.4,0s22.2-0.3,22.2-22.2s0-188.3,0-188.3
	s-0.6-22.3-22.3-22.3c-21.7,0-188.3,0-188.3,0S1065.1,38,1065.1,59.5z"/>
<path class="st1" d="M1074,66.4v174.3c0,0-0.3,20.4,20.4,20.4c20.7,0,174.3,0,174.3,0s20.6-0.3,20.6-20.6s0-174.1,0-174.1
	s-0.6-20.6-20.6-20.6c-20.1,0-174.2,0-174.2,0S1074,46.5,1074,66.4z"/>
<path class="st0" d="M1078.7,70.5V237c0,0-0.3,19.5,19.5,19.5s166.5,0,166.5,0s19.7-0.3,19.7-19.7s0-166.4,0-166.4
	s-0.5-19.7-19.7-19.7s-166.4,0-166.4,0S1078.7,51.5,1078.7,70.5z"/>
<rect x="1078.5" y="93.1" class="st1" width="205.9" height="5.2"/>
<path class="st2" d="M1078.5,105.7h205.9v131.9c0,0,0.3,18.7-19.6,18.7c-19.9,0-166.6,0-166.6,0c-11-0.2-18.4-5.3-19.5-18.6
	L1078.5,105.7z"/>
<text transform="matrix(1 0 0 1 1158.5352 83.9053)" class="st1 st3 st17 st5">MAY</text>
<text transform="matrix(1 0 0 1 1136.3145 237.3926)" class="st1 st3 st18 st7">1076</text>
<path class="st0" d="M807.9,58.8v190c0,0-0.3,22.3,22.3,22.3c22.6,0,190,0,190,0s22.4-0.3,22.4-22.4s0-189.8,0-189.8
	s-0.6-22.5-22.5-22.5s-189.9,0-189.9,0S807.9,37.1,807.9,58.8z"/>
<path class="st1" d="M816.8,65.7v175.7c0,0-0.3,20.6,20.6,20.6c20.9,0,175.7,0,175.7,0s20.7-0.3,20.7-20.7s0-175.5,0-175.5
	s-0.6-20.8-20.8-20.8c-20.2,0-175.6,0-175.6,0S816.8,45.7,816.8,65.7z"/>
<path class="st0" d="M821.5,69.8v167.9c0,0-0.3,19.7,19.7,19.7s167.9,0,167.9,0s19.8-0.3,19.8-19.8s0-167.7,0-167.7
	s-0.5-19.9-19.9-19.9c-19.3,0-167.8,0-167.8,0S821.5,50.7,821.5,69.8z"/>
<rect x="821.3" y="92.6" class="st1" width="207.6" height="5.3"/>
<path class="st2" d="M821.3,99.8h207.6v137.9c0,0,0.3,19.6-19.8,19.6c-20.1,0-168,0-168,0c-11.1-0.3-18.6-5.5-19.6-19.4L821.3,99.8z
	"/>
<text transform="matrix(1 0 0 1 902.0273 83.3711)" class="st1 st3 st19 st5">APR</text>
<text transform="matrix(1 0 0 1 880.1992 238.1226)" class="st1 st3 st20 st7">1123</text>
<path class="st0" d="M553.5,60v189.2c0,0-0.3,22.2,22.2,22.2c22.5,0,189.2,0,189.2,0s22.3-0.3,22.3-22.3s0-189,0-189
	s-0.6-22.4-22.4-22.4s-189.1,0-189.1,0S553.5,38.4,553.5,60z"/>
<path class="st1" d="M562.5,67v175c0,0-0.3,20.5,20.5,20.5c20.8,0,175,0,175,0s20.7-0.3,20.7-20.7s0-174.8,0-174.8
	s-0.6-20.7-20.7-20.7s-174.9,0-174.9,0S562.5,47,562.5,67z"/>
<path class="st0" d="M567.1,71v167.2c0,0-0.3,19.6,19.6,19.6s167.2,0,167.2,0s19.7-0.3,19.7-19.7s0-167,0-167s-0.5-19.8-19.8-19.8
	c-19.3,0-167.1,0-167.1,0S567.1,52,567.1,71z"/>
<rect x="566.9" y="93.8" class="st1" width="206.8" height="5.2"/>
<path class="st2" d="M566.9,146.7h206.8v97.1c0,0,0.3,13.8-19.7,13.8s-167.3,0-167.3,0c-11.1-0.2-18.5-3.9-19.6-13.7L566.9,146.7z"
	/>
<text transform="matrix(1 0 0 1 647.2891 84.5239)" class="st1 st3 st21 st5">MAR</text>
<text transform="matrix(1 0 0 1 630.5264 238.6431)" class="st1 st3 st22 st7">789</text>
<path class="st0" d="M297.2,59.1v190.1c0,0-0.3,22.3,22.3,22.3s190.1,0,190.1,0s22.4-0.3,22.4-22.4c0-22.1,0-189.9,0-189.9
	s-0.6-22.5-22.5-22.5s-190,0-190,0S297.2,37.4,297.2,59.1z"/>
<path class="st1" d="M306.2,66.1v175.8c0,0-0.3,20.6,20.6,20.6c20.9,0,175.8,0,175.8,0s20.8-0.3,20.8-20.8s0-175.7,0-175.7
	s-0.6-20.8-20.8-20.8s-175.7,0-175.7,0S306.2,46.1,306.2,66.1z"/>
<path class="st0" d="M310.8,70.2v168c0,0-0.3,19.7,19.7,19.7c20,0,168,0,168,0s19.8-0.3,19.8-19.8s0-167.8,0-167.8
	s-0.5-19.9-19.9-19.9c-19.4,0-167.9,0-167.9,0S310.8,51,310.8,70.2z"/>
<rect x="310.6" y="93" class="st1" width="207.7" height="5.3"/>
<path class="st2" d="M310.6,152.2h207.7v92.5c0,0,0.3,13.1-19.8,13.1c-20.1,0-168.1,0-168.1,0c-11.1-0.2-18.6-3.7-19.7-13
	L310.6,152.2z"/>
<text transform="matrix(1 0 0 1 391.3901 83.7485)" class="st1 st3 st23 st5">FEB</text>
<text transform="matrix(1 0 0 1 374.5444 238.6016)" class="st1 st3 st24 st7">748</text>
<path class="st0" d="M41.6,58.6v190.6c0,0-0.3,22.3,22.3,22.3s190.6,0,190.6,0S277,271.2,277,249s0-190.4,0-190.4S276.4,36,254.4,36
	c-22,0-190.5,0-190.5,0S41.6,36.9,41.6,58.6z"/>
<path class="st1" d="M50.6,65.6v176.2c0,0-0.3,20.7,20.7,20.7s176.2,0,176.2,0s20.8-0.3,20.8-20.8s0-176.1,0-176.1
	s-0.6-20.9-20.9-20.9s-176.2,0-176.2,0S50.6,45.5,50.6,65.6z"/>
<path class="st0" d="M55.2,69.7v168.4c0,0-0.3,19.7,19.7,19.7s168.4,0,168.4,0s19.9-0.3,19.9-19.9s0-168.3,0-168.3s-0.5-20-20-20
	S75,49.7,75,49.7S55.2,50.5,55.2,69.7z"/>
<rect x="55.1" y="92.6" class="st1" width="208.3" height="5.3"/>
<path class="st2" d="M55.1,130.4h208.3v111.4c0,0,0.3,15.8-19.9,15.8s-168.5,0-168.5,0c-11.2-0.2-18.6-4.4-19.7-15.7L55.1,130.4z"/>
<text transform="matrix(1 0 0 1 131.9795 83.272)" class="st1 st3 st25 st5">JAN</text>
<text transform="matrix(1 0 0 1 119.127 238.5122)" class="st1 st3 st26 st7">899</text>
<text transform="matrix(1 0 0 1 889.3965 504.3057)" class="st1 st3 st27 st7">919</text>
<text transform="matrix(1 0 0 1 371.748 503.8472)" class="st1 st3 st9 st7">1085</text>
</svg>
